<svg width="341" height="40" viewBox="0 0 341 40" fill="none" xmlns="http://www.w3.org/2000/svg">
<path d="M22.5464 0.735991C22.7064 0.51199 22.8984 0.399989 23.1224 0.399989H23.6984C24.0184 0.399989 24.1784 0.559989 24.1784 0.879989V33.52C24.1784 33.84 24.0184 34 23.6984 34H23.2184C22.8984 34 22.7384 33.84 22.7384 33.52V3.37599C22.7384 3.27999 22.7064 3.23199 22.6424 3.23199C22.5784 3.19999 22.5304 3.23199 22.4984 3.32799L13.1864 17.872C13.0264 18.096 12.8344 18.208 12.6104 18.208H12.3224C12.0984 18.208 11.9064 18.096 11.7464 17.872L2.33839 3.42399C2.30639 3.32799 2.25839 3.29599 2.19439 3.32799C2.13039 3.35999 2.09839 3.42399 2.09839 3.51999V33.52C2.09839 33.84 1.93839 34 1.61839 34H1.13839C0.818386 34 0.658386 33.84 0.658386 33.52V0.879989C0.658386 0.559989 0.818386 0.399989 1.13839 0.399989H1.71439C1.93839 0.399989 2.13039 0.51199 2.29039 0.735991L12.3224 16.24C12.3544 16.272 12.4024 16.288 12.4664 16.288C12.5304 16.288 12.5784 16.272 12.6104 16.24L22.5464 0.735991Z" fill="#151515"/>
<path d="M82.6499 34C82.3619 34 82.1699 33.888 82.0739 33.664L74.3939 17.92C74.3619 17.824 74.2979 17.776 74.2019 17.776H63.9779C63.8499 17.776 63.7859 17.84 63.7859 17.968V33.52C63.7859 33.84 63.6259 34 63.3059 34H62.8259C62.5059 34 62.3459 33.84 62.3459 33.52V0.879989C62.3459 0.559989 62.5059 0.399989 62.8259 0.399989H74.4419C77.0339 0.399989 79.1139 1.21599 80.6819 2.84799C82.2819 4.44799 83.0819 6.54399 83.0819 9.13599C83.0819 11.472 82.4419 13.408 81.1619 14.944C79.8819 16.448 78.1539 17.344 75.9779 17.632C75.8179 17.696 75.7699 17.776 75.8339 17.872L83.4179 33.424C83.4499 33.488 83.4659 33.568 83.4659 33.664C83.4659 33.888 83.3379 34 83.0819 34H82.6499ZM63.9779 1.74399C63.8499 1.74399 63.7859 1.80799 63.7859 1.93599V16.288C63.7859 16.416 63.8499 16.48 63.9779 16.48H74.4419C76.5859 16.48 78.3139 15.808 79.6259 14.464C80.9699 13.088 81.6419 11.312 81.6419 9.13599C81.6419 6.92799 80.9699 5.15199 79.6259 3.80799C78.3139 2.43199 76.5859 1.74399 74.4419 1.74399H63.9779Z" fill="#151515"/>
<path d="M101.05 34.384C98.9376 34.384 97.0816 33.984 95.4816 33.184C93.8816 32.352 92.6336 31.2 91.7376 29.728C90.8736 28.224 90.4416 26.496 90.4416 24.544V9.85599C90.4416 7.90399 90.8736 6.19199 91.7376 4.71999C92.6336 3.21599 93.8816 2.06399 95.4816 1.26399C97.0816 0.431991 98.9376 0.0159912 101.05 0.0159912C103.13 0.0159912 104.97 0.431991 106.57 1.26399C108.17 2.06399 109.402 3.21599 110.266 4.71999C111.13 6.19199 111.562 7.88799 111.562 9.80799V10.528C111.562 10.848 111.402 11.008 111.082 11.008H110.602C110.282 11.008 110.122 10.848 110.122 10.528V9.75999C110.122 7.23199 109.29 5.19999 107.626 3.66399C105.962 2.12799 103.77 1.35999 101.05 1.35999C98.2976 1.35999 96.0736 2.14399 94.3776 3.71199C92.7136 5.24799 91.8816 7.27999 91.8816 9.80799V24.592C91.8816 27.12 92.7136 29.168 94.3776 30.736C96.0736 32.272 98.2976 33.04 101.05 33.04C103.77 33.04 105.962 32.288 107.626 30.784C109.29 29.248 110.122 27.216 110.122 24.688V19.168C110.122 19.04 110.058 18.976 109.93 18.976H101.914C101.594 18.976 101.434 18.816 101.434 18.496V18.16C101.434 17.84 101.594 17.68 101.914 17.68H111.082C111.402 17.68 111.562 17.84 111.562 18.16V24.496C111.562 26.48 111.13 28.224 110.266 29.728C109.402 31.2 108.17 32.352 106.57 33.184C104.97 33.984 103.13 34.384 101.05 34.384Z" fill="#151515"/>
<path d="M130.63 34.336C128.518 34.336 126.646 33.904 125.014 33.04C123.414 32.144 122.166 30.912 121.27 29.344C120.374 27.744 119.926 25.904 119.926 23.824V10.624C119.926 8.54399 120.374 6.70399 121.27 5.10399C122.166 3.47199 123.414 2.22399 125.014 1.35999C126.646 0.463991 128.518 0.0159912 130.63 0.0159912C132.774 0.0159912 134.662 0.463991 136.294 1.35999C137.926 2.22399 139.19 3.47199 140.086 5.10399C140.982 6.70399 141.43 8.54399 141.43 10.624V23.824C141.43 25.904 140.982 27.744 140.086 29.344C139.19 30.912 137.926 32.144 136.294 33.04C134.662 33.904 132.774 34.336 130.63 34.336ZM130.63 33.04C133.446 33.04 135.702 32.208 137.398 30.544C139.126 28.848 139.99 26.624 139.99 23.872V10.576C139.99 7.82399 139.126 5.59999 137.398 3.90399C135.702 2.20799 133.446 1.35999 130.63 1.35999C127.846 1.35999 125.606 2.20799 123.91 3.90399C122.214 5.59999 121.366 7.82399 121.366 10.576V23.872C121.366 26.624 122.214 28.848 123.91 30.544C125.606 32.208 127.846 33.04 130.63 33.04Z" fill="#151515"/>
<path d="M148.633 34C148.313 34 148.153 33.84 148.153 33.52V32.992C148.153 32.832 148.217 32.624 148.345 32.368L167.065 1.98399C167.097 1.91999 167.097 1.87199 167.065 1.83999C167.033 1.77599 166.985 1.74399 166.921 1.74399H148.633C148.313 1.74399 148.153 1.58399 148.153 1.26399V0.879989C148.153 0.559989 148.313 0.399989 148.633 0.399989H168.313C168.633 0.399989 168.793 0.559989 168.793 0.879989V1.40799C168.793 1.56799 168.729 1.77599 168.601 2.03199L149.881 32.416C149.849 32.48 149.849 32.544 149.881 32.608C149.913 32.64 149.961 32.656 150.025 32.656H168.313C168.633 32.656 168.793 32.816 168.793 33.136V33.52C168.793 33.84 168.633 34 168.313 34H148.633Z" fill="#151515"/>
<path d="M174.743 34C174.423 34 174.263 33.84 174.263 33.52V32.992C174.263 32.832 174.327 32.624 174.455 32.368L193.175 1.98399C193.207 1.91999 193.207 1.87199 193.175 1.83999C193.143 1.77599 193.095 1.74399 193.031 1.74399H174.743C174.423 1.74399 174.263 1.58399 174.263 1.26399V0.879989C174.263 0.559989 174.423 0.399989 174.743 0.399989H194.423C194.743 0.399989 194.903 0.559989 194.903 0.879989V1.40799C194.903 1.56799 194.839 1.77599 194.711 2.03199L175.991 32.416C175.959 32.48 175.959 32.544 175.991 32.608C176.023 32.64 176.071 32.656 176.135 32.656H194.423C194.743 32.656 194.903 32.816 194.903 33.136V33.52C194.903 33.84 194.743 34 194.423 34H174.743Z" fill="#151515"/>
<path d="M203.732 34C203.412 34 203.252 33.84 203.252 33.52V0.879989C203.252 0.559989 203.412 0.399989 203.732 0.399989H204.212C204.532 0.399989 204.692 0.559989 204.692 0.879989V33.52C204.692 33.84 204.532 34 204.212 34H203.732Z" fill="#151515"/>
<path d="M235.981 0.879989C235.981 0.559989 236.141 0.399989 236.461 0.399989H236.941C237.261 0.399989 237.421 0.559989 237.421 0.879989V33.52C237.421 33.84 237.261 34 236.941 34H236.413C236.189 34 235.997 33.888 235.837 33.664L217.213 3.47199C217.181 3.37599 217.133 3.34399 217.069 3.37599C217.005 3.37599 216.973 3.42399 216.973 3.51999V33.52C216.973 33.84 216.813 34 216.493 34H216.013C215.693 34 215.533 33.84 215.533 33.52V0.879989C215.533 0.559989 215.693 0.399989 216.013 0.399989H216.589C216.813 0.399989 217.005 0.51199 217.165 0.735991L235.789 30.928C235.821 31.024 235.869 31.072 235.933 31.072C235.997 31.04 236.029 30.976 236.029 30.88L235.981 0.879989Z" fill="#151515"/>
<path d="M248.779 34C248.459 34 248.299 33.84 248.299 33.52V0.879989C248.299 0.559989 248.459 0.399989 248.779 0.399989H249.259C249.579 0.399989 249.739 0.559989 249.739 0.879989V33.52C249.739 33.84 249.579 34 249.259 34H248.779Z" fill="#151515"/>
<path d="M308.479 34C308.223 34 308.047 33.888 307.951 33.664L301.231 19.312C301.199 19.216 301.135 19.168 301.039 19.168H294.127C293.999 19.168 293.935 19.232 293.935 19.36V33.52C293.935 33.84 293.775 34 293.455 34H289.807C289.487 34 289.327 33.84 289.327 33.52V0.879989C289.327 0.559989 289.487 0.399989 289.807 0.399989H302.719C304.639 0.399989 306.319 0.79999 307.759 1.59999C309.231 2.39999 310.367 3.51999 311.167 4.95999C311.967 6.39999 312.367 8.06399 312.367 9.95199C312.367 12.192 311.775 14.096 310.591 15.664C309.439 17.2 307.823 18.24 305.743 18.784C305.615 18.848 305.583 18.928 305.647 19.024L312.607 33.424C312.639 33.488 312.655 33.568 312.655 33.664C312.655 33.888 312.527 34 312.271 34H308.479ZM294.127 4.38399C293.999 4.38399 293.935 4.44799 293.935 4.57599V15.328C293.935 15.456 293.999 15.52 294.127 15.52H302.143C303.839 15.52 305.199 15.024 306.223 14.032C307.247 13.008 307.759 11.664 307.759 9.99999C307.759 8.30399 307.247 6.94399 306.223 5.91999C305.199 4.89599 303.839 4.38399 302.143 4.38399H294.127Z" fill="#151515"/>
<path d="M328.796 0.0159912C331.068 0.0159912 333.068 0.495991 334.796 1.45599C336.524 2.38399 337.868 3.69599 338.828 5.39199C339.788 7.08799 340.268 9.05599 340.268 11.296V23.392C340.268 26.272 339.452 28.672 337.82 30.592C336.22 32.512 334.044 33.696 331.292 34.144C331.164 34.176 331.1 34.256 331.1 34.384V38.752C331.1 39.072 330.94 39.232 330.62 39.232H326.972C326.652 39.232 326.492 39.072 326.492 38.752V34.384C326.492 34.256 326.428 34.176 326.3 34.144C323.548 33.696 321.356 32.512 319.724 30.592C318.124 28.672 317.324 26.272 317.324 23.392V11.296C317.324 9.05599 317.804 7.08799 318.764 5.39199C319.724 3.69599 321.068 2.38399 322.796 1.45599C324.524 0.495991 326.524 0.0159912 328.796 0.0159912ZM335.66 11.056C335.66 8.94399 335.02 7.24799 333.74 5.96799C332.492 4.65599 330.844 3.99999 328.796 3.99999C326.748 3.99999 325.084 4.65599 323.804 5.96799C322.556 7.24799 321.932 8.94399 321.932 11.056V23.344C321.932 25.456 322.556 27.168 323.804 28.48C325.084 29.76 326.748 30.4 328.796 30.4C330.844 30.4 332.492 29.76 333.74 28.48C335.02 27.168 335.66 25.456 335.66 23.344V11.056Z" fill="#151515"/>
<path d="M31.9149 34.1C31.5629 34.1 31.4349 33.924 31.5309 33.572L42.2829 0.884001C42.3789 0.628 42.5709 0.5 42.8589 0.5H43.5309C43.8189 0.5 44.0109 0.628 44.1069 0.884001L54.9069 33.572L54.9549 33.764C54.9549 33.988 54.8109 34.1 54.5229 34.1C46.9869 34.1 39.4509 34.1 31.9149 34.1ZM33.6589 32.268C33.6269 32.332 33.6269 32.396 33.6589 32.46C33.7229 32.492 33.7869 32.508 33.8509 32.508H52.5869C52.6509 32.508 52.6989 32.492 52.7309 32.46C52.7629 32.396 52.7629 32.332 52.7309 32.268L43.3389 2.756C43.3069 2.692 43.2589 2.66 43.1949 2.66C43.1309 2.66 43.0829 2.692 43.0509 2.756L33.6589 32.268Z" fill="#151515"/>
<path d="M256.915 34.1C256.563 34.1 256.435 33.924 256.531 33.572L267.043 0.884001C267.139 0.628 267.331 0.5 267.619 0.5H272.419C272.707 0.5 272.899 0.628 272.995 0.884001L283.603 33.572L283.651 33.764C283.651 33.988 283.507 34.1 283.219 34.1C274.451 34.1 265.683 34.1 256.915 34.1ZM262.307 30.068C262.275 30.132 262.275 30.196 262.307 30.26C262.371 30.292 262.435 30.308 262.499 30.308H277.539C277.603 30.308 277.651 30.292 277.683 30.26C277.747 30.196 277.763 30.132 277.731 30.068L270.163 6.26C270.131 6.196 270.083 6.164 270.019 6.164C269.955 6.164 269.907 6.196 269.875 6.26L262.307 30.068Z" fill="#151515"/>
</svg>
